<svg xmlns="http://www.w3.org/2000/svg" width="900" height="560" viewBox="0 0 900 560">
<rect width="100%" height="100%" fill="#fbfaf7"/>
<text x="450.0" y="28" text-anchor="middle" font-size="22" font-family="Arial">Reflection vs slab thickness</text>
<line x1="78" y1="490" x2="876" y2="490" stroke="#252525"/>
<line x1="78" y1="54" x2="78" y2="490" stroke="#252525"/>
<line x1="78.0" y1="490" x2="78.0" y2="495" stroke="#252525"/>
<text x="78.0" y="514" text-anchor="middle" font-size="12" font-family="Arial">1</text>
<line x1="73" y1="490.0" x2="78" y2="490.0" stroke="#252525"/>
<text x="68" y="494.0" text-anchor="end" font-size="12" font-family="Arial">0.00</text>
<line x1="237.6" y1="490" x2="237.6" y2="495" stroke="#252525"/>
<text x="237.6" y="514" text-anchor="middle" font-size="12" font-family="Arial">7</text>
<line x1="73" y1="402.8" x2="78" y2="402.8" stroke="#252525"/>
<text x="68" y="406.8" text-anchor="end" font-size="12" font-family="Arial">0.20</text>
<line x1="397.2" y1="490" x2="397.2" y2="495" stroke="#252525"/>
<text x="397.2" y="514" text-anchor="middle" font-size="12" font-family="Arial">12</text>
<line x1="73" y1="315.6" x2="78" y2="315.6" stroke="#252525"/>
<text x="68" y="319.6" text-anchor="end" font-size="12" font-family="Arial">0.40</text>
<line x1="556.8" y1="490" x2="556.8" y2="495" stroke="#252525"/>
<text x="556.8" y="514" text-anchor="middle" font-size="12" font-family="Arial">18</text>
<line x1="73" y1="228.4" x2="78" y2="228.4" stroke="#252525"/>
<text x="68" y="232.4" text-anchor="end" font-size="12" font-family="Arial">0.60</text>
<line x1="716.4" y1="490" x2="716.4" y2="495" stroke="#252525"/>
<text x="716.4" y="514" text-anchor="middle" font-size="12" font-family="Arial">23</text>
<line x1="73" y1="141.2" x2="78" y2="141.2" stroke="#252525"/>
<text x="68" y="145.2" text-anchor="end" font-size="12" font-family="Arial">0.80</text>
<line x1="876.0" y1="490" x2="876.0" y2="495" stroke="#252525"/>
<text x="876.0" y="514" text-anchor="middle" font-size="12" font-family="Arial">29</text>
<line x1="73" y1="54.0" x2="78" y2="54.0" stroke="#252525"/>
<text x="68" y="58.0" text-anchor="end" font-size="12" font-family="Arial">1.00</text>
<polyline fill="none" stroke="#2563eb" stroke-width="2.6" points="78.0,212.1 135.0,156.2 192.0,148.8 249.0,142.2 306.0,140.6 363.0,146.3 420.0,143.7 477.0,145.0 534.0,146.9 591.0,146.3 648.0,139.7 705.0,149.6 762.0,141.8 819.0,143.5 876.0,142.8"/>
<circle cx="78.0" cy="212.1" r="3.2" fill="#2563eb"/>
<circle cx="135.0" cy="156.2" r="3.2" fill="#2563eb"/>
<circle cx="192.0" cy="148.8" r="3.2" fill="#2563eb"/>
<circle cx="249.0" cy="142.2" r="3.2" fill="#2563eb"/>
<circle cx="306.0" cy="140.6" r="3.2" fill="#2563eb"/>
<circle cx="363.0" cy="146.3" r="3.2" fill="#2563eb"/>
<circle cx="420.0" cy="143.7" r="3.2" fill="#2563eb"/>
<circle cx="477.0" cy="145.0" r="3.2" fill="#2563eb"/>
<circle cx="534.0" cy="146.9" r="3.2" fill="#2563eb"/>
<circle cx="591.0" cy="146.3" r="3.2" fill="#2563eb"/>
<circle cx="648.0" cy="139.7" r="3.2" fill="#2563eb"/>
<circle cx="705.0" cy="149.6" r="3.2" fill="#2563eb"/>
<circle cx="762.0" cy="141.8" r="3.2" fill="#2563eb"/>
<circle cx="819.0" cy="143.5" r="3.2" fill="#2563eb"/>
<circle cx="876.0" cy="142.8" r="3.2" fill="#2563eb"/>
<polyline fill="none" stroke="#b45309" stroke-width="2.6" points="78.0,424.9 135.0,333.3 192.0,281.2 249.0,248.7 306.0,233.8 363.0,217.9 420.0,201.7 477.0,196.3 534.0,190.9 591.0,186.8 648.0,186.4 705.0,186.1 762.0,180.9 819.0,178.6 876.0,180.6"/>
<circle cx="78.0" cy="424.9" r="3.2" fill="#b45309"/>
<circle cx="135.0" cy="333.3" r="3.2" fill="#b45309"/>
<circle cx="192.0" cy="281.2" r="3.2" fill="#b45309"/>
<circle cx="249.0" cy="248.7" r="3.2" fill="#b45309"/>
<circle cx="306.0" cy="233.8" r="3.2" fill="#b45309"/>
<circle cx="363.0" cy="217.9" r="3.2" fill="#b45309"/>
<circle cx="420.0" cy="201.7" r="3.2" fill="#b45309"/>
<circle cx="477.0" cy="196.3" r="3.2" fill="#b45309"/>
<circle cx="534.0" cy="190.9" r="3.2" fill="#b45309"/>
<circle cx="591.0" cy="186.8" r="3.2" fill="#b45309"/>
<circle cx="648.0" cy="186.4" r="3.2" fill="#b45309"/>
<circle cx="705.0" cy="186.1" r="3.2" fill="#b45309"/>
<circle cx="762.0" cy="180.9" r="3.2" fill="#b45309"/>
<circle cx="819.0" cy="178.6" r="3.2" fill="#b45309"/>
<circle cx="876.0" cy="180.6" r="3.2" fill="#b45309"/>
<polyline fill="none" stroke="#047857" stroke-width="2.6" points="78.0,413.0 135.0,328.5 192.0,263.9 249.0,231.9 306.0,209.5 363.0,183.3 420.0,167.2 477.0,159.1 534.0,139.2 591.0,140.9 648.0,142.4 705.0,130.7 762.0,125.4 819.0,115.0 876.0,120.7"/>
<circle cx="78.0" cy="413.0" r="3.2" fill="#047857"/>
<circle cx="135.0" cy="328.5" r="3.2" fill="#047857"/>
<circle cx="192.0" cy="263.9" r="3.2" fill="#047857"/>
<circle cx="249.0" cy="231.9" r="3.2" fill="#047857"/>
<circle cx="306.0" cy="209.5" r="3.2" fill="#047857"/>
<circle cx="363.0" cy="183.3" r="3.2" fill="#047857"/>
<circle cx="420.0" cy="167.2" r="3.2" fill="#047857"/>
<circle cx="477.0" cy="159.1" r="3.2" fill="#047857"/>
<circle cx="534.0" cy="139.2" r="3.2" fill="#047857"/>
<circle cx="591.0" cy="140.9" r="3.2" fill="#047857"/>
<circle cx="648.0" cy="142.4" r="3.2" fill="#047857"/>
<circle cx="705.0" cy="130.7" r="3.2" fill="#047857"/>
<circle cx="762.0" cy="125.4" r="3.2" fill="#047857"/>
<circle cx="819.0" cy="115.0" r="3.2" fill="#047857"/>
<circle cx="876.0" cy="120.7" r="3.2" fill="#047857"/>
<text x="450.0" y="538" text-anchor="middle" font-size="15" font-family="Arial">Thickness L (cm)</text>
<text x="18" y="280.0" transform="rotate(-90 18 280.0)" text-anchor="middle" font-size="15" font-family="Arial">Reflection fraction</text>
<line x1="710" y1="54" x2="740" y2="54" stroke="#2563eb" stroke-width="3"/>
<text x="748" y="59" font-size="14" font-family="Arial">Water</text>
<line x1="710" y1="78" x2="740" y2="78" stroke="#b45309" stroke-width="3"/>
<text x="748" y="83" font-size="14" font-family="Arial">Lead</text>
<line x1="710" y1="102" x2="740" y2="102" stroke="#047857" stroke-width="3"/>
<text x="748" y="107" font-size="14" font-family="Arial">Graphite</text>
</svg>